<?xml version="1.0" encoding="UTF-8" standalone="no"?>
<!DOCTYPE svg PUBLIC "-//W3C//DTD SVG 1.1//EN" "http://www.w3.org/Graphics/SVG/1.1/DTD/svg11.dtd">
<svg width="100%" height="100%" viewBox="0 0 501 133" version="1.1" xmlns="http://www.w3.org/2000/svg" xmlns:xlink="http://www.w3.org/1999/xlink" xml:space="preserve" xmlns:serif="http://www.serif.com/" style="fill-rule:evenodd;clip-rule:evenodd;stroke-linejoin:round;stroke-miterlimit:2;">
    <path d="M421.127,101.137C431.608,74.825 441.982,48.884 452.766,21.919C465.873,54.711 478.588,86.525 491.469,118.753C483.502,118.753 476.101,118.753 468.699,118.748C464.753,109.004 464.753,109.004 453.504,109.004L440.377,109.004C439.206,112.398 438.086,115.645 436.927,119.004C422.249,119.004 407.76,119.093 393.275,118.867C391.823,118.844 389.863,117.218 389.05,115.81C383.524,106.231 378.243,96.511 372.129,85.477L372.129,118.778L350.517,118.778L350.517,26.134C364.1,25.948 377.951,24.752 391.027,30.283C410.443,38.496 413.039,64.831 396.01,79.023C394.365,80.395 392.575,81.593 390.363,83.234C398.205,94.671 406.023,106.073 414.31,118.158C416.759,112.08 418.889,106.794 421.127,101.137M383.622,48.154C380.732,44.383 377.382,41.48 372.09,41.81L372.09,73.953C383.21,73.135 389.066,60.645 383.622,48.154M460.8,87.829C458.153,80.274 455.507,72.719 452.538,64.243C449.305,74.089 446.408,82.911 443.404,92.06L461.943,92.06C461.595,90.767 461.308,89.697 460.8,87.829Z" style="fill:#10B981;fill-rule:nonzero;"/>
    <path d="M312.029,88.762C312.038,67.677 312.038,47.063 312.038,26.223L334.578,26.223C334.657,27.763 334.81,29.211 334.793,30.657C334.544,50.972 334.826,71.314 333.865,91.596C332.655,117.128 306.536,130.072 284.734,116.422C275.81,110.835 272.474,101.846 272.255,92.123C271.764,70.333 272.101,48.525 272.101,26.358L293.752,26.358C293.819,27.571 293.966,29 293.967,30.429C293.99,48.922 293.899,67.415 294.074,85.906C294.111,89.843 294.852,93.826 295.713,97.689C296.556,101.47 299.226,103.845 303.18,103.859C307.217,103.872 309.559,101.171 310.591,97.558C311.359,94.867 311.564,92.014 312.029,88.762Z" style="fill:#10B981;fill-rule:nonzero;"/>
    <path d="M27.922,75.316L27.922,118.688L6.371,118.688L6.371,22.064C19.672,38.151 32.259,53.375 45.543,69.442L45.543,26.312L66.897,26.312L66.897,122.643C53.808,106.75 41.29,91.55 27.922,75.316Z" style="fill:#10B981;fill-rule:nonzero;"/>
    <path d="M168.856,109.946L168.856,118.681L146.517,118.681L146.517,26.144C160.647,26.03 175.049,24.641 188.648,31.157C209.078,40.945 206.277,70.559 192.759,81.77C186.013,87.365 178.375,90.569 168.856,91.275L168.856,109.946M180.604,66.88C185.309,53.685 180.055,42.547 168.543,41.832L168.543,76.747C174.357,75.85 177.79,72.344 180.604,66.88Z" style="fill:#10B981;fill-rule:nonzero;"/>
    <path d="M132.583,43.024L106.83,43.024L106.83,63.887L125.951,63.887L125.951,79.785L106.848,79.785L106.848,101.714L132.587,101.714L132.587,118.642L84.425,118.642L84.425,26.271L132.583,26.271L132.583,43.024Z" style="fill:#10B981;fill-rule:nonzero;"/>
    <path d="M205.757,26L262.673,26L262.673,42.917L245.441,42.917L245.441,118.77L223.233,118.77L223.233,43.258L205.757,43.258L205.757,26Z" style="fill:#10B981;fill-rule:nonzero;"/>
</svg>
